<mxfile host="app.diagrams.net" modified="2021-03-22T03:04:28.624Z" agent="5.0 (Windows NT 10.0; WOW64) AppleWebKit/537.36 (KHTML, like Gecko) Chrome/89.0.4389.82 Safari/537.36" etag="A47BVr1EM_zm9Kn8fSEu" version="14.4.9" type="github">
  <diagram id="C5RBs43oDa-KdzZeNtuy" name="Page-1">
    <mxGraphModel dx="865" dy="457" grid="1" gridSize="10" guides="1" tooltips="1" connect="1" arrows="1" fold="1" page="1" pageScale="1" pageWidth="827" pageHeight="1169" math="0" shadow="0">
      <root>
        <mxCell id="WIyWlLk6GJQsqaUBKTNV-0" />
        <mxCell id="WIyWlLk6GJQsqaUBKTNV-1" parent="WIyWlLk6GJQsqaUBKTNV-0" />
        <mxCell id="KnIarEQHBDuaND3oUreF-52" style="edgeStyle=orthogonalEdgeStyle;rounded=0;orthogonalLoop=1;jettySize=auto;html=1;entryX=0.5;entryY=0;entryDx=0;entryDy=0;" edge="1" parent="WIyWlLk6GJQsqaUBKTNV-1" source="WIyWlLk6GJQsqaUBKTNV-3" target="KnIarEQHBDuaND3oUreF-1">
          <mxGeometry relative="1" as="geometry" />
        </mxCell>
        <mxCell id="WIyWlLk6GJQsqaUBKTNV-3" value="原始信号" style="rounded=1;whiteSpace=wrap;html=1;fontSize=12;glass=0;strokeWidth=1;shadow=0;" parent="WIyWlLk6GJQsqaUBKTNV-1" vertex="1">
          <mxGeometry x="400" y="10" width="120" height="40" as="geometry" />
        </mxCell>
        <mxCell id="KnIarEQHBDuaND3oUreF-5" value="" style="edgeStyle=orthogonalEdgeStyle;rounded=0;orthogonalLoop=1;jettySize=auto;html=1;" edge="1" parent="WIyWlLk6GJQsqaUBKTNV-1" source="KnIarEQHBDuaND3oUreF-1" target="KnIarEQHBDuaND3oUreF-4">
          <mxGeometry relative="1" as="geometry" />
        </mxCell>
        <mxCell id="KnIarEQHBDuaND3oUreF-1" value="小波去噪" style="rounded=1;whiteSpace=wrap;html=1;fontSize=12;glass=0;strokeWidth=1;shadow=0;" vertex="1" parent="WIyWlLk6GJQsqaUBKTNV-1">
          <mxGeometry x="400" y="65" width="120" height="40" as="geometry" />
        </mxCell>
        <mxCell id="KnIarEQHBDuaND3oUreF-7" value="" style="edgeStyle=orthogonalEdgeStyle;rounded=0;orthogonalLoop=1;jettySize=auto;html=1;" edge="1" parent="WIyWlLk6GJQsqaUBKTNV-1" source="KnIarEQHBDuaND3oUreF-4" target="KnIarEQHBDuaND3oUreF-6">
          <mxGeometry relative="1" as="geometry" />
        </mxCell>
        <mxCell id="KnIarEQHBDuaND3oUreF-4" value="RC高通滤波" style="rounded=1;whiteSpace=wrap;html=1;fontSize=12;glass=0;strokeWidth=1;shadow=0;" vertex="1" parent="WIyWlLk6GJQsqaUBKTNV-1">
          <mxGeometry x="400" y="125" width="120" height="40" as="geometry" />
        </mxCell>
        <mxCell id="KnIarEQHBDuaND3oUreF-9" value="" style="edgeStyle=orthogonalEdgeStyle;rounded=0;orthogonalLoop=1;jettySize=auto;html=1;" edge="1" parent="WIyWlLk6GJQsqaUBKTNV-1" source="KnIarEQHBDuaND3oUreF-6" target="KnIarEQHBDuaND3oUreF-8">
          <mxGeometry relative="1" as="geometry" />
        </mxCell>
        <mxCell id="KnIarEQHBDuaND3oUreF-6" value="k=1" style="rounded=1;whiteSpace=wrap;html=1;fontSize=12;glass=0;strokeWidth=1;shadow=0;" vertex="1" parent="WIyWlLk6GJQsqaUBKTNV-1">
          <mxGeometry x="400" y="185" width="120" height="40" as="geometry" />
        </mxCell>
        <mxCell id="KnIarEQHBDuaND3oUreF-11" value="" style="edgeStyle=orthogonalEdgeStyle;rounded=0;orthogonalLoop=1;jettySize=auto;html=1;" edge="1" parent="WIyWlLk6GJQsqaUBKTNV-1" source="KnIarEQHBDuaND3oUreF-8" target="KnIarEQHBDuaND3oUreF-10">
          <mxGeometry relative="1" as="geometry" />
        </mxCell>
        <mxCell id="KnIarEQHBDuaND3oUreF-8" value="&lt;span style=&quot;font-size: 10.5pt&quot;&gt;取信号的最大值&lt;/span&gt;&lt;span lang=&quot;EN-US&quot; style=&quot;font-size: 10.5pt ; font-family: &amp;#34;calibri&amp;#34; , sans-serif&quot;&gt;maxv和&lt;/span&gt;&lt;span style=&quot;font-size: 10.5pt&quot;&gt;最小值&lt;/span&gt;&lt;span lang=&quot;EN-US&quot; style=&quot;font-size: 10.5pt ; font-family: &amp;#34;calibri&amp;#34; , sans-serif&quot;&gt;minv&lt;/span&gt;" style="rounded=1;whiteSpace=wrap;html=1;fontSize=12;glass=0;strokeWidth=1;shadow=0;" vertex="1" parent="WIyWlLk6GJQsqaUBKTNV-1">
          <mxGeometry x="400" y="245" width="120" height="60" as="geometry" />
        </mxCell>
        <mxCell id="KnIarEQHBDuaND3oUreF-13" value="" style="edgeStyle=orthogonalEdgeStyle;rounded=0;orthogonalLoop=1;jettySize=auto;html=1;" edge="1" parent="WIyWlLk6GJQsqaUBKTNV-1" source="KnIarEQHBDuaND3oUreF-10" target="KnIarEQHBDuaND3oUreF-12">
          <mxGeometry relative="1" as="geometry" />
        </mxCell>
        <mxCell id="KnIarEQHBDuaND3oUreF-10" value="&lt;span lang=&quot;EN-US&quot; style=&quot;font-size: 10.5pt ; font-family: &amp;#34;calibri&amp;#34; , sans-serif&quot;&gt;meanv=minv+step*k&lt;/span&gt;" style="rounded=1;whiteSpace=wrap;html=1;fontSize=12;glass=0;strokeWidth=1;shadow=0;" vertex="1" parent="WIyWlLk6GJQsqaUBKTNV-1">
          <mxGeometry x="400" y="335" width="120" height="50" as="geometry" />
        </mxCell>
        <mxCell id="KnIarEQHBDuaND3oUreF-15" value="" style="edgeStyle=orthogonalEdgeStyle;rounded=0;orthogonalLoop=1;jettySize=auto;html=1;" edge="1" parent="WIyWlLk6GJQsqaUBKTNV-1" source="KnIarEQHBDuaND3oUreF-12" target="KnIarEQHBDuaND3oUreF-14">
          <mxGeometry relative="1" as="geometry" />
        </mxCell>
        <mxCell id="KnIarEQHBDuaND3oUreF-12" value="&lt;span style=&quot;font-size: 10.5pt&quot;&gt;以meanv为基线，对压力信号&lt;/span&gt;&lt;span lang=&quot;EN-US&quot; style=&quot;font-size: 10.5pt ; font-family: &amp;#34;calibri&amp;#34; , sans-serif&quot;&gt;P&lt;/span&gt;&lt;span style=&quot;font-size: 10.5pt&quot;&gt;做纵坐标平移，得到信号Px&lt;/span&gt;" style="rounded=1;whiteSpace=wrap;html=1;fontSize=12;glass=0;strokeWidth=1;shadow=0;" vertex="1" parent="WIyWlLk6GJQsqaUBKTNV-1">
          <mxGeometry x="400" y="405" width="120" height="70" as="geometry" />
        </mxCell>
        <mxCell id="KnIarEQHBDuaND3oUreF-17" value="" style="edgeStyle=orthogonalEdgeStyle;rounded=0;orthogonalLoop=1;jettySize=auto;html=1;" edge="1" parent="WIyWlLk6GJQsqaUBKTNV-1" source="KnIarEQHBDuaND3oUreF-14" target="KnIarEQHBDuaND3oUreF-16">
          <mxGeometry relative="1" as="geometry" />
        </mxCell>
        <mxCell id="KnIarEQHBDuaND3oUreF-14" value="&lt;span style=&quot;font-size: 10.5pt&quot;&gt;统计压力信号&lt;/span&gt;&lt;span lang=&quot;EN-US&quot; style=&quot;font-size: 10.5pt ; font-family: &amp;#34;calibri&amp;#34; , sans-serif&quot;&gt;Px的正负区间个数NCs（k）&lt;/span&gt;" style="rounded=1;whiteSpace=wrap;html=1;fontSize=12;glass=0;strokeWidth=1;shadow=0;" vertex="1" parent="WIyWlLk6GJQsqaUBKTNV-1">
          <mxGeometry x="400" y="500" width="120" height="70" as="geometry" />
        </mxCell>
        <mxCell id="KnIarEQHBDuaND3oUreF-19" value="" style="edgeStyle=orthogonalEdgeStyle;rounded=0;orthogonalLoop=1;jettySize=auto;html=1;entryX=0.5;entryY=0;entryDx=0;entryDy=0;" edge="1" parent="WIyWlLk6GJQsqaUBKTNV-1" source="KnIarEQHBDuaND3oUreF-16" target="KnIarEQHBDuaND3oUreF-22">
          <mxGeometry relative="1" as="geometry">
            <mxPoint x="460.0000000000001" y="750" as="targetPoint" />
          </mxGeometry>
        </mxCell>
        <mxCell id="KnIarEQHBDuaND3oUreF-16" value="&lt;span style=&quot;font-size: 14px&quot;&gt;k+1&lt;/span&gt;" style="rounded=1;whiteSpace=wrap;html=1;fontSize=12;glass=0;strokeWidth=1;shadow=0;" vertex="1" parent="WIyWlLk6GJQsqaUBKTNV-1">
          <mxGeometry x="400" y="595" width="120" height="40" as="geometry" />
        </mxCell>
        <mxCell id="KnIarEQHBDuaND3oUreF-27" style="edgeStyle=orthogonalEdgeStyle;rounded=0;orthogonalLoop=1;jettySize=auto;html=1;exitX=0;exitY=0.5;exitDx=0;exitDy=0;entryX=0;entryY=0.5;entryDx=0;entryDy=0;" edge="1" parent="WIyWlLk6GJQsqaUBKTNV-1" source="KnIarEQHBDuaND3oUreF-22" target="KnIarEQHBDuaND3oUreF-10">
          <mxGeometry relative="1" as="geometry" />
        </mxCell>
        <mxCell id="KnIarEQHBDuaND3oUreF-28" value="否" style="edgeLabel;html=1;align=center;verticalAlign=middle;resizable=0;points=[];" vertex="1" connectable="0" parent="KnIarEQHBDuaND3oUreF-27">
          <mxGeometry x="-0.6631" relative="1" as="geometry">
            <mxPoint as="offset" />
          </mxGeometry>
        </mxCell>
        <mxCell id="KnIarEQHBDuaND3oUreF-35" value="" style="edgeStyle=orthogonalEdgeStyle;rounded=0;orthogonalLoop=1;jettySize=auto;html=1;" edge="1" parent="WIyWlLk6GJQsqaUBKTNV-1" source="KnIarEQHBDuaND3oUreF-22" target="KnIarEQHBDuaND3oUreF-34">
          <mxGeometry relative="1" as="geometry" />
        </mxCell>
        <mxCell id="KnIarEQHBDuaND3oUreF-50" value="" style="edgeStyle=orthogonalEdgeStyle;rounded=0;orthogonalLoop=1;jettySize=auto;html=1;" edge="1" parent="WIyWlLk6GJQsqaUBKTNV-1" source="KnIarEQHBDuaND3oUreF-22" target="KnIarEQHBDuaND3oUreF-36">
          <mxGeometry relative="1" as="geometry" />
        </mxCell>
        <mxCell id="KnIarEQHBDuaND3oUreF-51" value="是" style="edgeLabel;html=1;align=center;verticalAlign=middle;resizable=0;points=[];" vertex="1" connectable="0" parent="KnIarEQHBDuaND3oUreF-50">
          <mxGeometry x="-0.7251" y="1" relative="1" as="geometry">
            <mxPoint as="offset" />
          </mxGeometry>
        </mxCell>
        <mxCell id="KnIarEQHBDuaND3oUreF-22" value="k&amp;gt;M+1？" style="rhombus;whiteSpace=wrap;html=1;shadow=0;fontFamily=Helvetica;fontSize=12;align=center;strokeWidth=1;spacing=6;spacingTop=-4;" vertex="1" parent="WIyWlLk6GJQsqaUBKTNV-1">
          <mxGeometry x="390" y="650" width="140" height="80" as="geometry" />
        </mxCell>
        <mxCell id="KnIarEQHBDuaND3oUreF-37" value="" style="edgeStyle=orthogonalEdgeStyle;rounded=0;orthogonalLoop=1;jettySize=auto;html=1;" edge="1" parent="WIyWlLk6GJQsqaUBKTNV-1" source="KnIarEQHBDuaND3oUreF-34" target="KnIarEQHBDuaND3oUreF-36">
          <mxGeometry relative="1" as="geometry" />
        </mxCell>
        <mxCell id="KnIarEQHBDuaND3oUreF-34" value="&lt;span style=&quot;font-size: 10.5pt&quot;&gt;计算&lt;/span&gt;&lt;span lang=&quot;EN-US&quot; style=&quot;font-size: 10.5pt ; font-family: &amp;#34;calibri&amp;#34; , sans-serif&quot;&gt;NCs(k)&lt;/span&gt;&lt;span style=&quot;font-size: 10.5pt&quot;&gt;的均值&lt;/span&gt;&lt;span lang=&quot;EN-US&quot; style=&quot;font-size: 10.5pt ; font-family: &amp;#34;calibri&amp;#34; , sans-serif&quot;&gt;mean_NC&lt;/span&gt;" style="rounded=1;whiteSpace=wrap;html=1;fontSize=12;glass=0;strokeWidth=1;shadow=0;" vertex="1" parent="WIyWlLk6GJQsqaUBKTNV-1">
          <mxGeometry x="400" y="765" width="120" height="40" as="geometry" />
        </mxCell>
        <mxCell id="KnIarEQHBDuaND3oUreF-39" value="" style="edgeStyle=orthogonalEdgeStyle;rounded=0;orthogonalLoop=1;jettySize=auto;html=1;" edge="1" parent="WIyWlLk6GJQsqaUBKTNV-1" source="KnIarEQHBDuaND3oUreF-36" target="KnIarEQHBDuaND3oUreF-38">
          <mxGeometry relative="1" as="geometry" />
        </mxCell>
        <mxCell id="KnIarEQHBDuaND3oUreF-36" value="&lt;span style=&quot;font-size: 10.5pt&quot;&gt;以&lt;/span&gt;&lt;span style=&quot;font-family: &amp;#34;calibri&amp;#34; , sans-serif ; font-size: 14px&quot;&gt;mean_NC&lt;/span&gt;&lt;span style=&quot;font-size: 10.5pt&quot;&gt;为基线，对&lt;/span&gt;&lt;span style=&quot;font-family: &amp;#34;calibri&amp;#34; , sans-serif ; font-size: 14px&quot;&gt;NCs(k)&lt;/span&gt;&lt;span style=&quot;font-size: 10.5pt&quot;&gt;做纵坐标平移，得到纵坐标平移后的NCs(k)分布曲线&lt;/span&gt;" style="rounded=1;whiteSpace=wrap;html=1;fontSize=12;glass=0;strokeWidth=1;shadow=0;" vertex="1" parent="WIyWlLk6GJQsqaUBKTNV-1">
          <mxGeometry x="400" y="825" width="120" height="90" as="geometry" />
        </mxCell>
        <mxCell id="KnIarEQHBDuaND3oUreF-43" value="" style="edgeStyle=orthogonalEdgeStyle;rounded=0;orthogonalLoop=1;jettySize=auto;html=1;" edge="1" parent="WIyWlLk6GJQsqaUBKTNV-1" source="KnIarEQHBDuaND3oUreF-38" target="KnIarEQHBDuaND3oUreF-42">
          <mxGeometry relative="1" as="geometry" />
        </mxCell>
        <mxCell id="KnIarEQHBDuaND3oUreF-38" value="&lt;span style=&quot;font-size: 10.5pt&quot;&gt;统计区间分布曲线的个数NC&lt;/span&gt;" style="rounded=1;whiteSpace=wrap;html=1;fontSize=12;glass=0;strokeWidth=1;shadow=0;" vertex="1" parent="WIyWlLk6GJQsqaUBKTNV-1">
          <mxGeometry x="400" y="935" width="120" height="50" as="geometry" />
        </mxCell>
        <mxCell id="KnIarEQHBDuaND3oUreF-44" style="edgeStyle=orthogonalEdgeStyle;rounded=0;orthogonalLoop=1;jettySize=auto;html=1;entryX=0.5;entryY=1;entryDx=0;entryDy=0;" edge="1" parent="WIyWlLk6GJQsqaUBKTNV-1" source="KnIarEQHBDuaND3oUreF-42" target="KnIarEQHBDuaND3oUreF-45">
          <mxGeometry relative="1" as="geometry">
            <mxPoint x="310" y="185" as="targetPoint" />
          </mxGeometry>
        </mxCell>
        <mxCell id="KnIarEQHBDuaND3oUreF-47" value="否" style="edgeLabel;html=1;align=center;verticalAlign=middle;resizable=0;points=[];" vertex="1" connectable="0" parent="KnIarEQHBDuaND3oUreF-44">
          <mxGeometry x="-0.9016" relative="1" as="geometry">
            <mxPoint as="offset" />
          </mxGeometry>
        </mxCell>
        <mxCell id="KnIarEQHBDuaND3oUreF-49" value="是" style="edgeStyle=orthogonalEdgeStyle;rounded=0;orthogonalLoop=1;jettySize=auto;html=1;" edge="1" parent="WIyWlLk6GJQsqaUBKTNV-1" source="KnIarEQHBDuaND3oUreF-42" target="KnIarEQHBDuaND3oUreF-48">
          <mxGeometry relative="1" as="geometry">
            <Array as="points">
              <mxPoint x="460" y="1100" />
              <mxPoint x="460" y="1100" />
            </Array>
          </mxGeometry>
        </mxCell>
        <mxCell id="KnIarEQHBDuaND3oUreF-42" value="NC≤3" style="rhombus;whiteSpace=wrap;html=1;shadow=0;fontFamily=Helvetica;fontSize=12;align=center;strokeWidth=1;spacing=6;spacingTop=-4;" vertex="1" parent="WIyWlLk6GJQsqaUBKTNV-1">
          <mxGeometry x="390" y="1010" width="140" height="80" as="geometry" />
        </mxCell>
        <mxCell id="KnIarEQHBDuaND3oUreF-46" value="" style="edgeStyle=orthogonalEdgeStyle;rounded=0;orthogonalLoop=1;jettySize=auto;html=1;" edge="1" parent="WIyWlLk6GJQsqaUBKTNV-1" source="KnIarEQHBDuaND3oUreF-45" target="KnIarEQHBDuaND3oUreF-4">
          <mxGeometry relative="1" as="geometry" />
        </mxCell>
        <mxCell id="KnIarEQHBDuaND3oUreF-45" value="R=R/2" style="rounded=1;whiteSpace=wrap;html=1;fontSize=12;glass=0;strokeWidth=1;shadow=0;" vertex="1" parent="WIyWlLk6GJQsqaUBKTNV-1">
          <mxGeometry x="250" y="125" width="120" height="40" as="geometry" />
        </mxCell>
        <mxCell id="KnIarEQHBDuaND3oUreF-48" value="&lt;span style=&quot;font-size: 10.5pt&quot;&gt;趋势信号消除成功&lt;/span&gt;" style="rounded=1;whiteSpace=wrap;html=1;fontSize=12;glass=0;strokeWidth=1;shadow=0;" vertex="1" parent="WIyWlLk6GJQsqaUBKTNV-1">
          <mxGeometry x="400" y="1130" width="120" height="50" as="geometry" />
        </mxCell>
      </root>
    </mxGraphModel>
  </diagram>
</mxfile>
